<svg width="1024" height="1024" viewBox="0 0 1024 1024" fill="none" xmlns="http://www.w3.org/2000/svg">
  <!-- Background Circle -->
  <circle cx="512" cy="512" r="512" fill="#3498db"/>
  
  <!-- Gradient Background -->
  <defs>
    <linearGradient id="grad1" x1="0%" y1="0%" x2="100%" y2="100%">
      <stop offset="0%" style="stop-color:#3498db;stop-opacity:1" />
      <stop offset="100%" style="stop-color:#2980b9;stop-opacity:1" />
    </linearGradient>
    <linearGradient id="grad2" x1="0%" y1="0%" x2="100%" y2="100%">
      <stop offset="0%" style="stop-color:#ffffff;stop-opacity:1" />
      <stop offset="100%" style="stop-color:#f8f9fa;stop-opacity:1" />
    </linearGradient>
  </defs>
  
  <!-- Main Background -->
  <circle cx="512" cy="512" r="480" fill="url(#grad1)"/>
  
  <!-- Inner Circle -->
  <circle cx="512" cy="512" r="420" fill="url(#grad2)"/>
  
  <!-- Paw Print -->
  <g transform="translate(512, 512)">
    <!-- Main Paw Pad -->
    <ellipse cx="0" cy="0" rx="80" ry="60" fill="#e74c3c" opacity="0.9"/>
    
    <!-- Top Left Toe -->
    <ellipse cx="-60" cy="-80" rx="25" ry="35" fill="#e74c3c" opacity="0.9"/>
    
    <!-- Top Right Toe -->
    <ellipse cx="60" cy="-80" rx="25" ry="35" fill="#e74c3c" opacity="0.9"/>
    
    <!-- Middle Left Toe -->
    <ellipse cx="-40" cy="-100" rx="20" ry="30" fill="#e74c3c" opacity="0.9"/>
    
    <!-- Middle Right Toe -->
    <ellipse cx="40" cy="-100" rx="20" ry="30" fill="#e74c3c" opacity="0.9"/>
    
    <!-- Bottom Left Toe -->
    <ellipse cx="-70" cy="-40" rx="22" ry="32" fill="#e74c3c" opacity="0.9"/>
    
    <!-- Bottom Right Toe -->
    <ellipse cx="70" cy="-40" rx="22" ry="32" fill="#e74c3c" opacity="0.9"/>
  </g>
  
  <!-- Location Pin -->
  <g transform="translate(512, 512)">
    <!-- Pin Shadow -->
    <ellipse cx="0" cy="120" rx="25" ry="8" fill="#000000" opacity="0.2"/>
    
    <!-- Pin Body -->
    <path d="M0 -200 L-30 0 L0 80 L30 0 Z" fill="#f39c12"/>
    
    <!-- Pin Inner -->
    <path d="M0 -180 L-20 0 L0 60 L20 0 Z" fill="#e67e22"/>
    
    <!-- Pin Dot -->
    <circle cx="0" cy="-160" r="15" fill="#ffffff"/>
    <circle cx="0" cy="-160" r="8" fill="#e74c3c"/>
  </g>
  
  <!-- Tracking Lines -->
  <g stroke="#ffffff" stroke-width="8" stroke-linecap="round" opacity="0.8">
    <!-- Top Line -->
    <line x1="512" y1="200" x2="512" y2="280" />
    
    <!-- Bottom Line -->
    <line x1="512" y1="744" x2="512" y2="824" />
    
    <!-- Left Line -->
    <line x1="200" y1="512" x2="280" y2="512" />
    
    <!-- Right Line -->
    <line x1="744" y1="512" x2="824" y2="512" />
  </g>
  
  <!-- Small Location Dots -->
  <circle cx="512" cy="240" r="12" fill="#ffffff" opacity="0.9"/>
  <circle cx="512" cy="784" r="12" fill="#ffffff" opacity="0.9"/>
  <circle cx="240" cy="512" r="12" fill="#ffffff" opacity="0.9"/>
  <circle cx="784" cy="512" r="12" fill="#ffffff" opacity="0.9"/>
  
  <!-- Corner Accents -->
  <circle cx="200" cy="200" r="20" fill="#ffffff" opacity="0.3"/>
  <circle cx="824" cy="200" r="20" fill="#ffffff" opacity="0.3"/>
  <circle cx="200" cy="824" r="20" fill="#ffffff" opacity="0.3"/>
  <circle cx="824" cy="824" r="20" fill="#ffffff" opacity="0.3"/>
</svg> 